<mxfile host="Electron" modified="2024-11-22T13:38:05.425Z" agent="Mozilla/5.0 (Windows NT 10.0; Win64; x64) AppleWebKit/537.36 (KHTML, like Gecko) draw.io/22.1.18 Chrome/120.0.6099.199 Electron/28.1.2 Safari/537.36" etag="pd_11jhdIHEH5VK6TwJU" version="22.1.18" type="device">
  <diagram id="C5RBs43oDa-KdzZeNtuy" name="Page-1">
    <mxGraphModel dx="1562" dy="909" grid="1" gridSize="10" guides="1" tooltips="1" connect="1" arrows="1" fold="1" page="1" pageScale="1" pageWidth="1169" pageHeight="1654" math="0" shadow="0">
      <root>
        <mxCell id="WIyWlLk6GJQsqaUBKTNV-0" />
        <mxCell id="WIyWlLk6GJQsqaUBKTNV-1" parent="WIyWlLk6GJQsqaUBKTNV-0" />
        <mxCell id="Y3M50Y6j-PPYXHXEaoRl-0" value="Provincia&lt;br/&gt;" style="swimlane;fontStyle=0;childLayout=stackLayout;horizontal=1;startSize=26;fillColor=none;horizontalStack=0;resizeParent=1;resizeParentMax=0;resizeLast=0;collapsible=1;marginBottom=0;whiteSpace=wrap;html=1;" vertex="1" parent="WIyWlLk6GJQsqaUBKTNV-1">
          <mxGeometry x="40" y="160" width="140" height="104" as="geometry" />
        </mxCell>
        <mxCell id="Y3M50Y6j-PPYXHXEaoRl-1" value="provincia_id (PK)" style="text;strokeColor=none;fillColor=none;align=left;verticalAlign=top;spacingLeft=4;spacingRight=4;overflow=hidden;rotatable=0;points=[[0,0.5],[1,0.5]];portConstraint=eastwest;whiteSpace=wrap;html=1;" vertex="1" parent="Y3M50Y6j-PPYXHXEaoRl-0">
          <mxGeometry y="26" width="140" height="26" as="geometry" />
        </mxCell>
        <mxCell id="Y3M50Y6j-PPYXHXEaoRl-2" value="comunidad_id (FK)" style="text;strokeColor=none;fillColor=none;align=left;verticalAlign=top;spacingLeft=4;spacingRight=4;overflow=hidden;rotatable=0;points=[[0,0.5],[1,0.5]];portConstraint=eastwest;whiteSpace=wrap;html=1;" vertex="1" parent="Y3M50Y6j-PPYXHXEaoRl-0">
          <mxGeometry y="52" width="140" height="26" as="geometry" />
        </mxCell>
        <mxCell id="Y3M50Y6j-PPYXHXEaoRl-3" value="nombre&lt;br/&gt;" style="text;strokeColor=none;fillColor=none;align=left;verticalAlign=top;spacingLeft=4;spacingRight=4;overflow=hidden;rotatable=0;points=[[0,0.5],[1,0.5]];portConstraint=eastwest;whiteSpace=wrap;html=1;" vertex="1" parent="Y3M50Y6j-PPYXHXEaoRl-0">
          <mxGeometry y="78" width="140" height="26" as="geometry" />
        </mxCell>
        <mxCell id="Y3M50Y6j-PPYXHXEaoRl-4" value="Comunidad&lt;br/&gt;" style="swimlane;fontStyle=0;childLayout=stackLayout;horizontal=1;startSize=26;fillColor=none;horizontalStack=0;resizeParent=1;resizeParentMax=0;resizeLast=0;collapsible=1;marginBottom=0;whiteSpace=wrap;html=1;" vertex="1" parent="WIyWlLk6GJQsqaUBKTNV-1">
          <mxGeometry x="40" y="40" width="140" height="78" as="geometry" />
        </mxCell>
        <mxCell id="Y3M50Y6j-PPYXHXEaoRl-5" value="comunidad_id (PK)" style="text;strokeColor=none;fillColor=none;align=left;verticalAlign=top;spacingLeft=4;spacingRight=4;overflow=hidden;rotatable=0;points=[[0,0.5],[1,0.5]];portConstraint=eastwest;whiteSpace=wrap;html=1;" vertex="1" parent="Y3M50Y6j-PPYXHXEaoRl-4">
          <mxGeometry y="26" width="140" height="26" as="geometry" />
        </mxCell>
        <mxCell id="Y3M50Y6j-PPYXHXEaoRl-6" value="nombre&lt;br/&gt;" style="text;strokeColor=none;fillColor=none;align=left;verticalAlign=top;spacingLeft=4;spacingRight=4;overflow=hidden;rotatable=0;points=[[0,0.5],[1,0.5]];portConstraint=eastwest;whiteSpace=wrap;html=1;" vertex="1" parent="Y3M50Y6j-PPYXHXEaoRl-4">
          <mxGeometry y="52" width="140" height="26" as="geometry" />
        </mxCell>
        <mxCell id="Y3M50Y6j-PPYXHXEaoRl-8" value="Municipio&lt;br/&gt;" style="swimlane;fontStyle=0;childLayout=stackLayout;horizontal=1;startSize=26;fillColor=none;horizontalStack=0;resizeParent=1;resizeParentMax=0;resizeLast=0;collapsible=1;marginBottom=0;whiteSpace=wrap;html=1;" vertex="1" parent="WIyWlLk6GJQsqaUBKTNV-1">
          <mxGeometry x="40" y="310" width="140" height="104" as="geometry" />
        </mxCell>
        <mxCell id="Y3M50Y6j-PPYXHXEaoRl-9" value="municipio_id (PK)" style="text;strokeColor=none;fillColor=none;align=left;verticalAlign=top;spacingLeft=4;spacingRight=4;overflow=hidden;rotatable=0;points=[[0,0.5],[1,0.5]];portConstraint=eastwest;whiteSpace=wrap;html=1;" vertex="1" parent="Y3M50Y6j-PPYXHXEaoRl-8">
          <mxGeometry y="26" width="140" height="26" as="geometry" />
        </mxCell>
        <mxCell id="Y3M50Y6j-PPYXHXEaoRl-10" value="provincia_id (FK)" style="text;strokeColor=none;fillColor=none;align=left;verticalAlign=top;spacingLeft=4;spacingRight=4;overflow=hidden;rotatable=0;points=[[0,0.5],[1,0.5]];portConstraint=eastwest;whiteSpace=wrap;html=1;" vertex="1" parent="Y3M50Y6j-PPYXHXEaoRl-8">
          <mxGeometry y="52" width="140" height="26" as="geometry" />
        </mxCell>
        <mxCell id="Y3M50Y6j-PPYXHXEaoRl-11" value="nombre&lt;br/&gt;" style="text;strokeColor=none;fillColor=none;align=left;verticalAlign=top;spacingLeft=4;spacingRight=4;overflow=hidden;rotatable=0;points=[[0,0.5],[1,0.5]];portConstraint=eastwest;whiteSpace=wrap;html=1;" vertex="1" parent="Y3M50Y6j-PPYXHXEaoRl-8">
          <mxGeometry y="78" width="140" height="26" as="geometry" />
        </mxCell>
        <mxCell id="Y3M50Y6j-PPYXHXEaoRl-13" value="Localidad&lt;br/&gt;" style="swimlane;fontStyle=0;childLayout=stackLayout;horizontal=1;startSize=26;fillColor=none;horizontalStack=0;resizeParent=1;resizeParentMax=0;resizeLast=0;collapsible=1;marginBottom=0;whiteSpace=wrap;html=1;" vertex="1" parent="WIyWlLk6GJQsqaUBKTNV-1">
          <mxGeometry x="40" y="460" width="140" height="104" as="geometry" />
        </mxCell>
        <mxCell id="Y3M50Y6j-PPYXHXEaoRl-14" value="localidad_id (PK)" style="text;strokeColor=none;fillColor=none;align=left;verticalAlign=top;spacingLeft=4;spacingRight=4;overflow=hidden;rotatable=0;points=[[0,0.5],[1,0.5]];portConstraint=eastwest;whiteSpace=wrap;html=1;" vertex="1" parent="Y3M50Y6j-PPYXHXEaoRl-13">
          <mxGeometry y="26" width="140" height="26" as="geometry" />
        </mxCell>
        <mxCell id="Y3M50Y6j-PPYXHXEaoRl-15" value="municipio_id (PK)" style="text;strokeColor=none;fillColor=none;align=left;verticalAlign=top;spacingLeft=4;spacingRight=4;overflow=hidden;rotatable=0;points=[[0,0.5],[1,0.5]];portConstraint=eastwest;whiteSpace=wrap;html=1;" vertex="1" parent="Y3M50Y6j-PPYXHXEaoRl-13">
          <mxGeometry y="52" width="140" height="26" as="geometry" />
        </mxCell>
        <mxCell id="Y3M50Y6j-PPYXHXEaoRl-16" value="nombre&lt;br/&gt;" style="text;strokeColor=none;fillColor=none;align=left;verticalAlign=top;spacingLeft=4;spacingRight=4;overflow=hidden;rotatable=0;points=[[0,0.5],[1,0.5]];portConstraint=eastwest;whiteSpace=wrap;html=1;" vertex="1" parent="Y3M50Y6j-PPYXHXEaoRl-13">
          <mxGeometry y="78" width="140" height="26" as="geometry" />
        </mxCell>
        <mxCell id="Y3M50Y6j-PPYXHXEaoRl-17" value="Rotulo&lt;br/&gt;" style="swimlane;fontStyle=0;childLayout=stackLayout;horizontal=1;startSize=26;fillColor=none;horizontalStack=0;resizeParent=1;resizeParentMax=0;resizeLast=0;collapsible=1;marginBottom=0;whiteSpace=wrap;html=1;" vertex="1" parent="WIyWlLk6GJQsqaUBKTNV-1">
          <mxGeometry x="210" y="470" width="140" height="78" as="geometry" />
        </mxCell>
        <mxCell id="Y3M50Y6j-PPYXHXEaoRl-18" value="rotulo_id (PK)" style="text;strokeColor=none;fillColor=none;align=left;verticalAlign=top;spacingLeft=4;spacingRight=4;overflow=hidden;rotatable=0;points=[[0,0.5],[1,0.5]];portConstraint=eastwest;whiteSpace=wrap;html=1;" vertex="1" parent="Y3M50Y6j-PPYXHXEaoRl-17">
          <mxGeometry y="26" width="140" height="26" as="geometry" />
        </mxCell>
        <mxCell id="Y3M50Y6j-PPYXHXEaoRl-19" value="nombre&lt;br/&gt;" style="text;strokeColor=none;fillColor=none;align=left;verticalAlign=top;spacingLeft=4;spacingRight=4;overflow=hidden;rotatable=0;points=[[0,0.5],[1,0.5]];portConstraint=eastwest;whiteSpace=wrap;html=1;" vertex="1" parent="Y3M50Y6j-PPYXHXEaoRl-17">
          <mxGeometry y="52" width="140" height="26" as="geometry" />
        </mxCell>
        <mxCell id="Y3M50Y6j-PPYXHXEaoRl-21" value="TipoEstacion&lt;br/&gt;" style="swimlane;fontStyle=0;childLayout=stackLayout;horizontal=1;startSize=26;fillColor=none;horizontalStack=0;resizeParent=1;resizeParentMax=0;resizeLast=0;collapsible=1;marginBottom=0;whiteSpace=wrap;html=1;" vertex="1" parent="WIyWlLk6GJQsqaUBKTNV-1">
          <mxGeometry x="380" y="470" width="140" height="78" as="geometry" />
        </mxCell>
        <mxCell id="Y3M50Y6j-PPYXHXEaoRl-22" value="tipo_estacion_id (PK)" style="text;strokeColor=none;fillColor=none;align=left;verticalAlign=top;spacingLeft=4;spacingRight=4;overflow=hidden;rotatable=0;points=[[0,0.5],[1,0.5]];portConstraint=eastwest;whiteSpace=wrap;html=1;" vertex="1" parent="Y3M50Y6j-PPYXHXEaoRl-21">
          <mxGeometry y="26" width="140" height="26" as="geometry" />
        </mxCell>
        <mxCell id="Y3M50Y6j-PPYXHXEaoRl-23" value="descripcion&lt;br/&gt;" style="text;strokeColor=none;fillColor=none;align=left;verticalAlign=top;spacingLeft=4;spacingRight=4;overflow=hidden;rotatable=0;points=[[0,0.5],[1,0.5]];portConstraint=eastwest;whiteSpace=wrap;html=1;" vertex="1" parent="Y3M50Y6j-PPYXHXEaoRl-21">
          <mxGeometry y="52" width="140" height="26" as="geometry" />
        </mxCell>
        <mxCell id="Y3M50Y6j-PPYXHXEaoRl-25" value="TipoVenta&lt;br/&gt;" style="swimlane;fontStyle=0;childLayout=stackLayout;horizontal=1;startSize=26;fillColor=none;horizontalStack=0;resizeParent=1;resizeParentMax=0;resizeLast=0;collapsible=1;marginBottom=0;whiteSpace=wrap;html=1;" vertex="1" parent="WIyWlLk6GJQsqaUBKTNV-1">
          <mxGeometry x="550" y="470" width="140" height="78" as="geometry" />
        </mxCell>
        <mxCell id="Y3M50Y6j-PPYXHXEaoRl-26" value="tipo_venta_id (PK)" style="text;strokeColor=none;fillColor=none;align=left;verticalAlign=top;spacingLeft=4;spacingRight=4;overflow=hidden;rotatable=0;points=[[0,0.5],[1,0.5]];portConstraint=eastwest;whiteSpace=wrap;html=1;" vertex="1" parent="Y3M50Y6j-PPYXHXEaoRl-25">
          <mxGeometry y="26" width="140" height="26" as="geometry" />
        </mxCell>
        <mxCell id="Y3M50Y6j-PPYXHXEaoRl-27" value="descripcion&lt;br/&gt;" style="text;strokeColor=none;fillColor=none;align=left;verticalAlign=top;spacingLeft=4;spacingRight=4;overflow=hidden;rotatable=0;points=[[0,0.5],[1,0.5]];portConstraint=eastwest;whiteSpace=wrap;html=1;" vertex="1" parent="Y3M50Y6j-PPYXHXEaoRl-25">
          <mxGeometry y="52" width="140" height="26" as="geometry" />
        </mxCell>
        <mxCell id="Y3M50Y6j-PPYXHXEaoRl-29" value="Margen&lt;br/&gt;" style="swimlane;fontStyle=0;childLayout=stackLayout;horizontal=1;startSize=26;fillColor=none;horizontalStack=0;resizeParent=1;resizeParentMax=0;resizeLast=0;collapsible=1;marginBottom=0;whiteSpace=wrap;html=1;" vertex="1" parent="WIyWlLk6GJQsqaUBKTNV-1">
          <mxGeometry x="720" y="470" width="140" height="78" as="geometry" />
        </mxCell>
        <mxCell id="Y3M50Y6j-PPYXHXEaoRl-30" value="margen_id (PK)" style="text;strokeColor=none;fillColor=none;align=left;verticalAlign=top;spacingLeft=4;spacingRight=4;overflow=hidden;rotatable=0;points=[[0,0.5],[1,0.5]];portConstraint=eastwest;whiteSpace=wrap;html=1;" vertex="1" parent="Y3M50Y6j-PPYXHXEaoRl-29">
          <mxGeometry y="26" width="140" height="26" as="geometry" />
        </mxCell>
        <mxCell id="Y3M50Y6j-PPYXHXEaoRl-31" value="descripcion&lt;br/&gt;" style="text;strokeColor=none;fillColor=none;align=left;verticalAlign=top;spacingLeft=4;spacingRight=4;overflow=hidden;rotatable=0;points=[[0,0.5],[1,0.5]];portConstraint=eastwest;whiteSpace=wrap;html=1;" vertex="1" parent="Y3M50Y6j-PPYXHXEaoRl-29">
          <mxGeometry y="52" width="140" height="26" as="geometry" />
        </mxCell>
        <mxCell id="Y3M50Y6j-PPYXHXEaoRl-33" value="EstacionServicio&lt;br/&gt;" style="swimlane;fontStyle=0;childLayout=stackLayout;horizontal=1;startSize=26;fillColor=none;horizontalStack=0;resizeParent=1;resizeParentMax=0;resizeLast=0;collapsible=1;marginBottom=0;whiteSpace=wrap;html=1;" vertex="1" parent="WIyWlLk6GJQsqaUBKTNV-1">
          <mxGeometry x="380" y="660" width="140" height="382" as="geometry" />
        </mxCell>
        <mxCell id="Y3M50Y6j-PPYXHXEaoRl-34" value="estacion_id (PK)" style="text;strokeColor=none;fillColor=none;align=left;verticalAlign=top;spacingLeft=4;spacingRight=4;overflow=hidden;rotatable=0;points=[[0,0.5],[1,0.5]];portConstraint=eastwest;whiteSpace=wrap;html=1;" vertex="1" parent="Y3M50Y6j-PPYXHXEaoRl-33">
          <mxGeometry y="26" width="140" height="26" as="geometry" />
        </mxCell>
        <mxCell id="Y3M50Y6j-PPYXHXEaoRl-35" value="rotulo_id (FK)" style="text;strokeColor=none;fillColor=none;align=left;verticalAlign=top;spacingLeft=4;spacingRight=4;overflow=hidden;rotatable=0;points=[[0,0.5],[1,0.5]];portConstraint=eastwest;whiteSpace=wrap;html=1;" vertex="1" parent="Y3M50Y6j-PPYXHXEaoRl-33">
          <mxGeometry y="52" width="140" height="26" as="geometry" />
        </mxCell>
        <mxCell id="Y3M50Y6j-PPYXHXEaoRl-36" value="localidad_id (FK)" style="text;strokeColor=none;fillColor=none;align=left;verticalAlign=top;spacingLeft=4;spacingRight=4;overflow=hidden;rotatable=0;points=[[0,0.5],[1,0.5]];portConstraint=eastwest;whiteSpace=wrap;html=1;" vertex="1" parent="Y3M50Y6j-PPYXHXEaoRl-33">
          <mxGeometry y="78" width="140" height="22" as="geometry" />
        </mxCell>
        <mxCell id="Y3M50Y6j-PPYXHXEaoRl-46" value="tipo_estacion_id (FK)" style="text;strokeColor=none;fillColor=none;align=left;verticalAlign=top;spacingLeft=4;spacingRight=4;overflow=hidden;rotatable=0;points=[[0,0.5],[1,0.5]];portConstraint=eastwest;whiteSpace=wrap;html=1;" vertex="1" parent="Y3M50Y6j-PPYXHXEaoRl-33">
          <mxGeometry y="100" width="140" height="26" as="geometry" />
        </mxCell>
        <mxCell id="Y3M50Y6j-PPYXHXEaoRl-48" value="codigo_postal" style="text;strokeColor=none;fillColor=none;align=left;verticalAlign=top;spacingLeft=4;spacingRight=4;overflow=hidden;rotatable=0;points=[[0,0.5],[1,0.5]];portConstraint=eastwest;whiteSpace=wrap;html=1;" vertex="1" parent="Y3M50Y6j-PPYXHXEaoRl-33">
          <mxGeometry y="126" width="140" height="26" as="geometry" />
        </mxCell>
        <mxCell id="Y3M50Y6j-PPYXHXEaoRl-49" value="direccion" style="text;strokeColor=none;fillColor=none;align=left;verticalAlign=top;spacingLeft=4;spacingRight=4;overflow=hidden;rotatable=0;points=[[0,0.5],[1,0.5]];portConstraint=eastwest;whiteSpace=wrap;html=1;" vertex="1" parent="Y3M50Y6j-PPYXHXEaoRl-33">
          <mxGeometry y="152" width="140" height="26" as="geometry" />
        </mxCell>
        <mxCell id="Y3M50Y6j-PPYXHXEaoRl-50" value="margen_id (FK)" style="text;strokeColor=none;fillColor=none;align=left;verticalAlign=top;spacingLeft=4;spacingRight=4;overflow=hidden;rotatable=0;points=[[0,0.5],[1,0.5]];portConstraint=eastwest;whiteSpace=wrap;html=1;" vertex="1" parent="Y3M50Y6j-PPYXHXEaoRl-33">
          <mxGeometry y="178" width="140" height="22" as="geometry" />
        </mxCell>
        <mxCell id="Y3M50Y6j-PPYXHXEaoRl-51" value="latitud" style="text;strokeColor=none;fillColor=none;align=left;verticalAlign=top;spacingLeft=4;spacingRight=4;overflow=hidden;rotatable=0;points=[[0,0.5],[1,0.5]];portConstraint=eastwest;whiteSpace=wrap;html=1;" vertex="1" parent="Y3M50Y6j-PPYXHXEaoRl-33">
          <mxGeometry y="200" width="140" height="26" as="geometry" />
        </mxCell>
        <mxCell id="Y3M50Y6j-PPYXHXEaoRl-52" value="longitud" style="text;strokeColor=none;fillColor=none;align=left;verticalAlign=top;spacingLeft=4;spacingRight=4;overflow=hidden;rotatable=0;points=[[0,0.5],[1,0.5]];portConstraint=eastwest;whiteSpace=wrap;html=1;" vertex="1" parent="Y3M50Y6j-PPYXHXEaoRl-33">
          <mxGeometry y="226" width="140" height="26" as="geometry" />
        </mxCell>
        <mxCell id="Y3M50Y6j-PPYXHXEaoRl-53" value="toma_de_datos" style="text;strokeColor=none;fillColor=none;align=left;verticalAlign=top;spacingLeft=4;spacingRight=4;overflow=hidden;rotatable=0;points=[[0,0.5],[1,0.5]];portConstraint=eastwest;whiteSpace=wrap;html=1;" vertex="1" parent="Y3M50Y6j-PPYXHXEaoRl-33">
          <mxGeometry y="252" width="140" height="26" as="geometry" />
        </mxCell>
        <mxCell id="Y3M50Y6j-PPYXHXEaoRl-54" value="tipo_servicio" style="text;strokeColor=none;fillColor=none;align=left;verticalAlign=top;spacingLeft=4;spacingRight=4;overflow=hidden;rotatable=0;points=[[0,0.5],[1,0.5]];portConstraint=eastwest;whiteSpace=wrap;html=1;" vertex="1" parent="Y3M50Y6j-PPYXHXEaoRl-33">
          <mxGeometry y="278" width="140" height="26" as="geometry" />
        </mxCell>
        <mxCell id="Y3M50Y6j-PPYXHXEaoRl-55" value="tipo_venta_id (FK)" style="text;strokeColor=none;fillColor=none;align=left;verticalAlign=top;spacingLeft=4;spacingRight=4;overflow=hidden;rotatable=0;points=[[0,0.5],[1,0.5]];portConstraint=eastwest;whiteSpace=wrap;html=1;" vertex="1" parent="Y3M50Y6j-PPYXHXEaoRl-33">
          <mxGeometry y="304" width="140" height="26" as="geometry" />
        </mxCell>
        <mxCell id="Y3M50Y6j-PPYXHXEaoRl-47" value="rem" style="text;strokeColor=none;fillColor=none;align=left;verticalAlign=top;spacingLeft=4;spacingRight=4;overflow=hidden;rotatable=0;points=[[0,0.5],[1,0.5]];portConstraint=eastwest;whiteSpace=wrap;html=1;" vertex="1" parent="Y3M50Y6j-PPYXHXEaoRl-33">
          <mxGeometry y="330" width="140" height="26" as="geometry" />
        </mxCell>
        <mxCell id="Y3M50Y6j-PPYXHXEaoRl-56" value="horario&lt;br/&gt;" style="text;strokeColor=none;fillColor=none;align=left;verticalAlign=top;spacingLeft=4;spacingRight=4;overflow=hidden;rotatable=0;points=[[0,0.5],[1,0.5]];portConstraint=eastwest;whiteSpace=wrap;html=1;" vertex="1" parent="Y3M50Y6j-PPYXHXEaoRl-33">
          <mxGeometry y="356" width="140" height="26" as="geometry" />
        </mxCell>
        <mxCell id="Y3M50Y6j-PPYXHXEaoRl-37" value="PrecioCarburante&lt;br/&gt;" style="swimlane;fontStyle=0;childLayout=stackLayout;horizontal=1;startSize=26;fillColor=none;horizontalStack=0;resizeParent=1;resizeParentMax=0;resizeLast=0;collapsible=1;marginBottom=0;whiteSpace=wrap;html=1;" vertex="1" parent="WIyWlLk6GJQsqaUBKTNV-1">
          <mxGeometry x="560" y="800" width="140" height="104" as="geometry" />
        </mxCell>
        <mxCell id="Y3M50Y6j-PPYXHXEaoRl-38" value="estacion_id (FK)" style="text;strokeColor=none;fillColor=none;align=left;verticalAlign=top;spacingLeft=4;spacingRight=4;overflow=hidden;rotatable=0;points=[[0,0.5],[1,0.5]];portConstraint=eastwest;whiteSpace=wrap;html=1;" vertex="1" parent="Y3M50Y6j-PPYXHXEaoRl-37">
          <mxGeometry y="26" width="140" height="26" as="geometry" />
        </mxCell>
        <mxCell id="Y3M50Y6j-PPYXHXEaoRl-39" value="carburante_id (FK)" style="text;strokeColor=none;fillColor=none;align=left;verticalAlign=top;spacingLeft=4;spacingRight=4;overflow=hidden;rotatable=0;points=[[0,0.5],[1,0.5]];portConstraint=eastwest;whiteSpace=wrap;html=1;" vertex="1" parent="Y3M50Y6j-PPYXHXEaoRl-37">
          <mxGeometry y="52" width="140" height="26" as="geometry" />
        </mxCell>
        <mxCell id="Y3M50Y6j-PPYXHXEaoRl-40" value="precio&lt;br/&gt;" style="text;strokeColor=none;fillColor=none;align=left;verticalAlign=top;spacingLeft=4;spacingRight=4;overflow=hidden;rotatable=0;points=[[0,0.5],[1,0.5]];portConstraint=eastwest;whiteSpace=wrap;html=1;" vertex="1" parent="Y3M50Y6j-PPYXHXEaoRl-37">
          <mxGeometry y="78" width="140" height="26" as="geometry" />
        </mxCell>
        <mxCell id="Y3M50Y6j-PPYXHXEaoRl-41" value="Carburante&lt;br/&gt;" style="swimlane;fontStyle=0;childLayout=stackLayout;horizontal=1;startSize=26;fillColor=none;horizontalStack=0;resizeParent=1;resizeParentMax=0;resizeLast=0;collapsible=1;marginBottom=0;whiteSpace=wrap;html=1;" vertex="1" parent="WIyWlLk6GJQsqaUBKTNV-1">
          <mxGeometry x="790" y="826" width="140" height="78" as="geometry" />
        </mxCell>
        <mxCell id="Y3M50Y6j-PPYXHXEaoRl-42" value="carburante_id (PK)" style="text;strokeColor=none;fillColor=none;align=left;verticalAlign=top;spacingLeft=4;spacingRight=4;overflow=hidden;rotatable=0;points=[[0,0.5],[1,0.5]];portConstraint=eastwest;whiteSpace=wrap;html=1;" vertex="1" parent="Y3M50Y6j-PPYXHXEaoRl-41">
          <mxGeometry y="26" width="140" height="26" as="geometry" />
        </mxCell>
        <mxCell id="Y3M50Y6j-PPYXHXEaoRl-43" value="nombre&lt;br/&gt;" style="text;strokeColor=none;fillColor=none;align=left;verticalAlign=top;spacingLeft=4;spacingRight=4;overflow=hidden;rotatable=0;points=[[0,0.5],[1,0.5]];portConstraint=eastwest;whiteSpace=wrap;html=1;" vertex="1" parent="Y3M50Y6j-PPYXHXEaoRl-41">
          <mxGeometry y="52" width="140" height="26" as="geometry" />
        </mxCell>
        <mxCell id="Y3M50Y6j-PPYXHXEaoRl-58" value="" style="endArrow=classic;html=1;rounded=0;entryX=0.5;entryY=0;entryDx=0;entryDy=0;" edge="1" parent="WIyWlLk6GJQsqaUBKTNV-1" target="Y3M50Y6j-PPYXHXEaoRl-0">
          <mxGeometry width="50" height="50" relative="1" as="geometry">
            <mxPoint x="110" y="120" as="sourcePoint" />
            <mxPoint x="270" y="130" as="targetPoint" />
          </mxGeometry>
        </mxCell>
        <mxCell id="Y3M50Y6j-PPYXHXEaoRl-70" value="1:N" style="edgeLabel;html=1;align=center;verticalAlign=middle;resizable=0;points=[];" vertex="1" connectable="0" parent="Y3M50Y6j-PPYXHXEaoRl-58">
          <mxGeometry x="-0.1786" y="-2" relative="1" as="geometry">
            <mxPoint as="offset" />
          </mxGeometry>
        </mxCell>
        <mxCell id="Y3M50Y6j-PPYXHXEaoRl-61" value="" style="endArrow=classic;html=1;rounded=0;entryX=0.5;entryY=0;entryDx=0;entryDy=0;" edge="1" parent="WIyWlLk6GJQsqaUBKTNV-1" target="Y3M50Y6j-PPYXHXEaoRl-8">
          <mxGeometry width="50" height="50" relative="1" as="geometry">
            <mxPoint x="110" y="266" as="sourcePoint" />
            <mxPoint x="110" y="306" as="targetPoint" />
          </mxGeometry>
        </mxCell>
        <mxCell id="Y3M50Y6j-PPYXHXEaoRl-69" value="1:N" style="edgeLabel;html=1;align=center;verticalAlign=middle;resizable=0;points=[];" vertex="1" connectable="0" parent="Y3M50Y6j-PPYXHXEaoRl-61">
          <mxGeometry x="-0.0649" y="1" relative="1" as="geometry">
            <mxPoint as="offset" />
          </mxGeometry>
        </mxCell>
        <mxCell id="Y3M50Y6j-PPYXHXEaoRl-63" value="" style="endArrow=classic;html=1;rounded=0;" edge="1" parent="WIyWlLk6GJQsqaUBKTNV-1">
          <mxGeometry width="50" height="50" relative="1" as="geometry">
            <mxPoint x="110" y="416" as="sourcePoint" />
            <mxPoint x="110" y="460" as="targetPoint" />
          </mxGeometry>
        </mxCell>
        <mxCell id="Y3M50Y6j-PPYXHXEaoRl-68" value="1:N" style="edgeLabel;html=1;align=center;verticalAlign=middle;resizable=0;points=[];" vertex="1" connectable="0" parent="Y3M50Y6j-PPYXHXEaoRl-63">
          <mxGeometry x="-0.2532" y="3" relative="1" as="geometry">
            <mxPoint as="offset" />
          </mxGeometry>
        </mxCell>
        <mxCell id="Y3M50Y6j-PPYXHXEaoRl-71" value="" style="endArrow=classic;html=1;rounded=0;entryX=0.25;entryY=0;entryDx=0;entryDy=0;curved=1;" edge="1" parent="WIyWlLk6GJQsqaUBKTNV-1" target="Y3M50Y6j-PPYXHXEaoRl-33">
          <mxGeometry width="50" height="50" relative="1" as="geometry">
            <mxPoint x="279.64" y="548" as="sourcePoint" />
            <mxPoint x="419" y="671" as="targetPoint" />
          </mxGeometry>
        </mxCell>
        <mxCell id="Y3M50Y6j-PPYXHXEaoRl-72" value="1:N" style="edgeLabel;html=1;align=center;verticalAlign=middle;resizable=0;points=[];" vertex="1" connectable="0" parent="Y3M50Y6j-PPYXHXEaoRl-71">
          <mxGeometry x="-0.2532" y="3" relative="1" as="geometry">
            <mxPoint as="offset" />
          </mxGeometry>
        </mxCell>
        <mxCell id="Y3M50Y6j-PPYXHXEaoRl-73" value="" style="endArrow=classic;html=1;rounded=0;entryX=0.5;entryY=0;entryDx=0;entryDy=0;curved=1;" edge="1" parent="WIyWlLk6GJQsqaUBKTNV-1" target="Y3M50Y6j-PPYXHXEaoRl-33">
          <mxGeometry width="50" height="50" relative="1" as="geometry">
            <mxPoint x="449.64" y="548" as="sourcePoint" />
            <mxPoint x="449.64" y="592" as="targetPoint" />
          </mxGeometry>
        </mxCell>
        <mxCell id="Y3M50Y6j-PPYXHXEaoRl-74" value="1:N" style="edgeLabel;html=1;align=center;verticalAlign=middle;resizable=0;points=[];" vertex="1" connectable="0" parent="Y3M50Y6j-PPYXHXEaoRl-73">
          <mxGeometry x="-0.2532" y="3" relative="1" as="geometry">
            <mxPoint as="offset" />
          </mxGeometry>
        </mxCell>
        <mxCell id="Y3M50Y6j-PPYXHXEaoRl-81" value="" style="endArrow=classic;html=1;rounded=1;entryX=0.75;entryY=0;entryDx=0;entryDy=0;curved=0;" edge="1" parent="WIyWlLk6GJQsqaUBKTNV-1" target="Y3M50Y6j-PPYXHXEaoRl-33">
          <mxGeometry width="50" height="50" relative="1" as="geometry">
            <mxPoint x="617.3199999999999" y="548" as="sourcePoint" />
            <mxPoint x="622.6800000000001" y="640" as="targetPoint" />
          </mxGeometry>
        </mxCell>
        <mxCell id="Y3M50Y6j-PPYXHXEaoRl-82" value="1:N" style="edgeLabel;html=1;align=center;verticalAlign=middle;resizable=0;points=[];" vertex="1" connectable="0" parent="Y3M50Y6j-PPYXHXEaoRl-81">
          <mxGeometry x="-0.2532" y="3" relative="1" as="geometry">
            <mxPoint as="offset" />
          </mxGeometry>
        </mxCell>
        <mxCell id="Y3M50Y6j-PPYXHXEaoRl-83" value="" style="endArrow=classic;html=1;rounded=1;entryX=1;entryY=0;entryDx=0;entryDy=0;curved=0;" edge="1" parent="WIyWlLk6GJQsqaUBKTNV-1" target="Y3M50Y6j-PPYXHXEaoRl-33">
          <mxGeometry width="50" height="50" relative="1" as="geometry">
            <mxPoint x="787.3199999999999" y="548" as="sourcePoint" />
            <mxPoint x="792.6800000000001" y="640" as="targetPoint" />
            <Array as="points">
              <mxPoint x="787" y="660" />
            </Array>
          </mxGeometry>
        </mxCell>
        <mxCell id="Y3M50Y6j-PPYXHXEaoRl-84" value="1:N" style="edgeLabel;html=1;align=center;verticalAlign=middle;resizable=0;points=[];" vertex="1" connectable="0" parent="Y3M50Y6j-PPYXHXEaoRl-83">
          <mxGeometry x="-0.2532" y="3" relative="1" as="geometry">
            <mxPoint as="offset" />
          </mxGeometry>
        </mxCell>
        <mxCell id="Y3M50Y6j-PPYXHXEaoRl-92" value="" style="endArrow=classic;html=1;rounded=1;entryX=0.5;entryY=0;entryDx=0;entryDy=0;exitX=1.02;exitY=0.11;exitDx=0;exitDy=0;exitPerimeter=0;curved=0;" edge="1" parent="WIyWlLk6GJQsqaUBKTNV-1" source="Y3M50Y6j-PPYXHXEaoRl-34" target="Y3M50Y6j-PPYXHXEaoRl-37">
          <mxGeometry width="50" height="50" relative="1" as="geometry">
            <mxPoint x="859.9999999999999" y="640" as="sourcePoint" />
            <mxPoint x="592.68" y="752" as="targetPoint" />
            <Array as="points">
              <mxPoint x="630" y="690" />
            </Array>
          </mxGeometry>
        </mxCell>
        <mxCell id="Y3M50Y6j-PPYXHXEaoRl-93" value="1:N" style="edgeLabel;html=1;align=center;verticalAlign=middle;resizable=0;points=[];" vertex="1" connectable="0" parent="Y3M50Y6j-PPYXHXEaoRl-92">
          <mxGeometry x="-0.2532" y="3" relative="1" as="geometry">
            <mxPoint as="offset" />
          </mxGeometry>
        </mxCell>
        <mxCell id="Y3M50Y6j-PPYXHXEaoRl-94" value="" style="endArrow=classic;html=1;rounded=1;entryX=1;entryY=0.5;entryDx=0;entryDy=0;exitX=0;exitY=0.5;exitDx=0;exitDy=0;curved=0;" edge="1" parent="WIyWlLk6GJQsqaUBKTNV-1" source="Y3M50Y6j-PPYXHXEaoRl-42" target="Y3M50Y6j-PPYXHXEaoRl-39">
          <mxGeometry width="50" height="50" relative="1" as="geometry">
            <mxPoint x="807.3199999999999" y="568" as="sourcePoint" />
            <mxPoint x="540" y="680" as="targetPoint" />
          </mxGeometry>
        </mxCell>
        <mxCell id="Y3M50Y6j-PPYXHXEaoRl-95" value="1:N" style="edgeLabel;html=1;align=center;verticalAlign=middle;resizable=0;points=[];" vertex="1" connectable="0" parent="Y3M50Y6j-PPYXHXEaoRl-94">
          <mxGeometry x="-0.2532" y="3" relative="1" as="geometry">
            <mxPoint as="offset" />
          </mxGeometry>
        </mxCell>
        <mxCell id="Y3M50Y6j-PPYXHXEaoRl-96" value="" style="endArrow=classic;html=1;rounded=1;entryX=0;entryY=0;entryDx=0;entryDy=0;curved=0;" edge="1" parent="WIyWlLk6GJQsqaUBKTNV-1">
          <mxGeometry width="50" height="50" relative="1" as="geometry">
            <mxPoint x="110" y="566" as="sourcePoint" />
            <mxPoint x="380" y="660" as="targetPoint" />
            <Array as="points">
              <mxPoint x="110" y="660" />
            </Array>
          </mxGeometry>
        </mxCell>
        <mxCell id="Y3M50Y6j-PPYXHXEaoRl-97" value="1:N" style="edgeLabel;html=1;align=center;verticalAlign=middle;resizable=0;points=[];" vertex="1" connectable="0" parent="Y3M50Y6j-PPYXHXEaoRl-96">
          <mxGeometry x="-0.2016" relative="1" as="geometry">
            <mxPoint as="offset" />
          </mxGeometry>
        </mxCell>
        <mxCell id="Y3M50Y6j-PPYXHXEaoRl-98" value="" style="endArrow=classic;html=1;rounded=1;entryX=0.25;entryY=0;entryDx=0;entryDy=0;curved=0;" edge="1" parent="WIyWlLk6GJQsqaUBKTNV-1">
          <mxGeometry width="50" height="50" relative="1" as="geometry">
            <mxPoint x="279.64" y="548" as="sourcePoint" />
            <mxPoint x="415" y="660" as="targetPoint" />
          </mxGeometry>
        </mxCell>
        <mxCell id="Y3M50Y6j-PPYXHXEaoRl-99" value="1:N" style="edgeLabel;html=1;align=center;verticalAlign=middle;resizable=0;points=[];" vertex="1" connectable="0" parent="Y3M50Y6j-PPYXHXEaoRl-98">
          <mxGeometry x="-0.2532" y="3" relative="1" as="geometry">
            <mxPoint as="offset" />
          </mxGeometry>
        </mxCell>
        <mxCell id="Y3M50Y6j-PPYXHXEaoRl-100" value="" style="endArrow=classic;html=1;rounded=1;entryX=0.5;entryY=0;entryDx=0;entryDy=0;curved=0;" edge="1" parent="WIyWlLk6GJQsqaUBKTNV-1">
          <mxGeometry width="50" height="50" relative="1" as="geometry">
            <mxPoint x="449.64" y="548" as="sourcePoint" />
            <mxPoint x="450" y="660" as="targetPoint" />
          </mxGeometry>
        </mxCell>
        <mxCell id="Y3M50Y6j-PPYXHXEaoRl-101" value="1:N" style="edgeLabel;html=1;align=center;verticalAlign=middle;resizable=0;points=[];" vertex="1" connectable="0" parent="Y3M50Y6j-PPYXHXEaoRl-100">
          <mxGeometry x="-0.2532" y="3" relative="1" as="geometry">
            <mxPoint as="offset" />
          </mxGeometry>
        </mxCell>
      </root>
    </mxGraphModel>
  </diagram>
</mxfile>
